<mxfile host="app.diagrams.net" agent="Mozilla/5.0 (Macintosh; Intel Mac OS X 10_15_7) AppleWebKit/537.36 (KHTML, like Gecko) Chrome/130.0.0.0 Safari/537.36" version="24.8.6">
  <diagram name="Page-1" id="Htoc3a5Afda6pvUZ6DoV">
    <mxGraphModel dx="2264" dy="1174" grid="0" gridSize="10" guides="1" tooltips="1" connect="1" arrows="1" fold="1" page="0" pageScale="1" pageWidth="850" pageHeight="1100" math="0" shadow="0">
      <root>
        <mxCell id="0" />
        <mxCell id="1" parent="0" />
        <mxCell id="BF2ht0ZoKoiUmP0f6C4_-9" style="edgeStyle=orthogonalEdgeStyle;rounded=0;orthogonalLoop=1;jettySize=auto;html=1;exitX=1;exitY=0.5;exitDx=0;exitDy=0;entryX=0;entryY=0.5;entryDx=0;entryDy=0;" edge="1" parent="1" source="BF2ht0ZoKoiUmP0f6C4_-1" target="BF2ht0ZoKoiUmP0f6C4_-7">
          <mxGeometry relative="1" as="geometry" />
        </mxCell>
        <mxCell id="BF2ht0ZoKoiUmP0f6C4_-10" value="organizes&lt;div&gt;(many-to-many)&lt;/div&gt;" style="edgeLabel;html=1;align=center;verticalAlign=middle;resizable=0;points=[];" vertex="1" connectable="0" parent="BF2ht0ZoKoiUmP0f6C4_-9">
          <mxGeometry x="-0.0076" y="1" relative="1" as="geometry">
            <mxPoint as="offset" />
          </mxGeometry>
        </mxCell>
        <mxCell id="BF2ht0ZoKoiUmP0f6C4_-58" style="edgeStyle=orthogonalEdgeStyle;rounded=0;orthogonalLoop=1;jettySize=auto;html=1;exitX=0;exitY=0.5;exitDx=0;exitDy=0;entryX=0.5;entryY=0;entryDx=0;entryDy=0;" edge="1" parent="1" source="BF2ht0ZoKoiUmP0f6C4_-1" target="BF2ht0ZoKoiUmP0f6C4_-51">
          <mxGeometry relative="1" as="geometry" />
        </mxCell>
        <mxCell id="BF2ht0ZoKoiUmP0f6C4_-59" value="manages(many-to-many)" style="edgeLabel;html=1;align=center;verticalAlign=middle;resizable=0;points=[];" vertex="1" connectable="0" parent="BF2ht0ZoKoiUmP0f6C4_-58">
          <mxGeometry x="0.3154" relative="1" as="geometry">
            <mxPoint as="offset" />
          </mxGeometry>
        </mxCell>
        <mxCell id="BF2ht0ZoKoiUmP0f6C4_-1" value="Staff" style="rounded=0;whiteSpace=wrap;html=1;" vertex="1" parent="1">
          <mxGeometry x="-315" y="33" width="86" height="28" as="geometry" />
        </mxCell>
        <mxCell id="BF2ht0ZoKoiUmP0f6C4_-2" value="StaffID(PK)" style="rounded=0;whiteSpace=wrap;html=1;" vertex="1" parent="1">
          <mxGeometry x="-315" y="61" width="86" height="28" as="geometry" />
        </mxCell>
        <mxCell id="BF2ht0ZoKoiUmP0f6C4_-3" value="Name&lt;span style=&quot;color: rgba(0, 0, 0, 0); font-family: monospace; font-size: 0px; text-align: start; text-wrap-mode: nowrap;&quot;&gt;%3CmxGraphModel%3E%3Croot%3E%3CmxCell%20id%3D%220%22%2F%3E%3CmxCell%20id%3D%221%22%20parent%3D%220%22%2F%3E%3CmxCell%20id%3D%222%22%20value%3D%22Staff%22%20style%3D%22rounded%3D0%3BwhiteSpace%3Dwrap%3Bhtml%3D1%3B%22%20vertex%3D%221%22%20parent%3D%221%22%3E%3CmxGeometry%20x%3D%22-315%22%20y%3D%22-26%22%20width%3D%2286%22%20height%3D%2228%22%20as%3D%22geometry%22%2F%3E%3C%2FmxCell%3E%3C%2Froot%3E%3C%2FmxGraphModel%3E&lt;/span&gt;" style="rounded=0;whiteSpace=wrap;html=1;" vertex="1" parent="1">
          <mxGeometry x="-315" y="89" width="86" height="28" as="geometry" />
        </mxCell>
        <mxCell id="BF2ht0ZoKoiUmP0f6C4_-4" value="Role" style="rounded=0;whiteSpace=wrap;html=1;" vertex="1" parent="1">
          <mxGeometry x="-315" y="117" width="86" height="28" as="geometry" />
        </mxCell>
        <mxCell id="BF2ht0ZoKoiUmP0f6C4_-5" value="Email" style="rounded=0;whiteSpace=wrap;html=1;" vertex="1" parent="1">
          <mxGeometry x="-315" y="145" width="86" height="28" as="geometry" />
        </mxCell>
        <mxCell id="BF2ht0ZoKoiUmP0f6C4_-6" value="Phone" style="rounded=0;whiteSpace=wrap;html=1;" vertex="1" parent="1">
          <mxGeometry x="-315" y="173" width="86" height="28" as="geometry" />
        </mxCell>
        <mxCell id="BF2ht0ZoKoiUmP0f6C4_-7" value="Activity" style="rounded=0;whiteSpace=wrap;html=1;" vertex="1" parent="1">
          <mxGeometry x="-133" y="201" width="86" height="28" as="geometry" />
        </mxCell>
        <mxCell id="BF2ht0ZoKoiUmP0f6C4_-11" value="ActivityID(PK)" style="rounded=0;whiteSpace=wrap;html=1;" vertex="1" parent="1">
          <mxGeometry x="-133" y="229" width="86" height="28" as="geometry" />
        </mxCell>
        <mxCell id="BF2ht0ZoKoiUmP0f6C4_-12" value="Name" style="rounded=0;whiteSpace=wrap;html=1;" vertex="1" parent="1">
          <mxGeometry x="-133" y="257" width="86" height="28" as="geometry" />
        </mxCell>
        <mxCell id="BF2ht0ZoKoiUmP0f6C4_-13" value="Discription" style="rounded=0;whiteSpace=wrap;html=1;" vertex="1" parent="1">
          <mxGeometry x="-133" y="285" width="86" height="28" as="geometry" />
        </mxCell>
        <mxCell id="BF2ht0ZoKoiUmP0f6C4_-17" style="edgeStyle=orthogonalEdgeStyle;rounded=0;orthogonalLoop=1;jettySize=auto;html=1;exitX=0.5;exitY=1;exitDx=0;exitDy=0;" edge="1" parent="1" source="BF2ht0ZoKoiUmP0f6C4_-14" target="BF2ht0ZoKoiUmP0f6C4_-15">
          <mxGeometry relative="1" as="geometry" />
        </mxCell>
        <mxCell id="BF2ht0ZoKoiUmP0f6C4_-18" value="affects(one-to-many)" style="edgeLabel;html=1;align=center;verticalAlign=middle;resizable=0;points=[];" vertex="1" connectable="0" parent="BF2ht0ZoKoiUmP0f6C4_-17">
          <mxGeometry x="-0.1139" y="2" relative="1" as="geometry">
            <mxPoint as="offset" />
          </mxGeometry>
        </mxCell>
        <mxCell id="BF2ht0ZoKoiUmP0f6C4_-14" value="Date" style="rounded=0;whiteSpace=wrap;html=1;" vertex="1" parent="1">
          <mxGeometry x="-133" y="313" width="86" height="28" as="geometry" />
        </mxCell>
        <mxCell id="BF2ht0ZoKoiUmP0f6C4_-15" value="Report" style="rounded=0;whiteSpace=wrap;html=1;" vertex="1" parent="1">
          <mxGeometry x="-133" y="420" width="86" height="28" as="geometry" />
        </mxCell>
        <mxCell id="BF2ht0ZoKoiUmP0f6C4_-16" value="ReportID" style="rounded=0;whiteSpace=wrap;html=1;" vertex="1" parent="1">
          <mxGeometry x="-133" y="448" width="86" height="28" as="geometry" />
        </mxCell>
        <mxCell id="BF2ht0ZoKoiUmP0f6C4_-19" value="Date" style="rounded=0;whiteSpace=wrap;html=1;" vertex="1" parent="1">
          <mxGeometry x="-133" y="476" width="86" height="28" as="geometry" />
        </mxCell>
        <mxCell id="BF2ht0ZoKoiUmP0f6C4_-20" value="Content" style="rounded=0;whiteSpace=wrap;html=1;" vertex="1" parent="1">
          <mxGeometry x="-133" y="504" width="86" height="28" as="geometry" />
        </mxCell>
        <mxCell id="BF2ht0ZoKoiUmP0f6C4_-26" style="edgeStyle=orthogonalEdgeStyle;rounded=0;orthogonalLoop=1;jettySize=auto;html=1;exitX=0;exitY=0.5;exitDx=0;exitDy=0;entryX=1;entryY=0.5;entryDx=0;entryDy=0;" edge="1" parent="1" source="BF2ht0ZoKoiUmP0f6C4_-21" target="BF2ht0ZoKoiUmP0f6C4_-7">
          <mxGeometry relative="1" as="geometry" />
        </mxCell>
        <mxCell id="BF2ht0ZoKoiUmP0f6C4_-27" value="participates_in&lt;div&gt;(many-to-many)&lt;/div&gt;" style="edgeLabel;html=1;align=center;verticalAlign=middle;resizable=0;points=[];" vertex="1" connectable="0" parent="BF2ht0ZoKoiUmP0f6C4_-26">
          <mxGeometry x="-0.1241" relative="1" as="geometry">
            <mxPoint as="offset" />
          </mxGeometry>
        </mxCell>
        <mxCell id="BF2ht0ZoKoiUmP0f6C4_-49" style="edgeStyle=orthogonalEdgeStyle;rounded=0;orthogonalLoop=1;jettySize=auto;html=1;" edge="1" parent="1" source="BF2ht0ZoKoiUmP0f6C4_-21" target="BF2ht0ZoKoiUmP0f6C4_-44">
          <mxGeometry relative="1" as="geometry" />
        </mxCell>
        <mxCell id="BF2ht0ZoKoiUmP0f6C4_-50" value="participates_in(many-to-many)" style="edgeLabel;html=1;align=center;verticalAlign=middle;resizable=0;points=[];" vertex="1" connectable="0" parent="BF2ht0ZoKoiUmP0f6C4_-49">
          <mxGeometry x="0.5274" relative="1" as="geometry">
            <mxPoint as="offset" />
          </mxGeometry>
        </mxCell>
        <mxCell id="BF2ht0ZoKoiUmP0f6C4_-21" value="Member" style="rounded=0;whiteSpace=wrap;html=1;" vertex="1" parent="1">
          <mxGeometry x="75" y="33" width="86" height="28" as="geometry" />
        </mxCell>
        <mxCell id="BF2ht0ZoKoiUmP0f6C4_-22" value="MemberID(PK)" style="rounded=0;whiteSpace=wrap;html=1;" vertex="1" parent="1">
          <mxGeometry x="75" y="61" width="86" height="28" as="geometry" />
        </mxCell>
        <mxCell id="BF2ht0ZoKoiUmP0f6C4_-23" value="Name" style="rounded=0;whiteSpace=wrap;html=1;" vertex="1" parent="1">
          <mxGeometry x="75" y="89" width="86" height="28" as="geometry" />
        </mxCell>
        <mxCell id="BF2ht0ZoKoiUmP0f6C4_-24" value="Occupation" style="rounded=0;whiteSpace=wrap;html=1;" vertex="1" parent="1">
          <mxGeometry x="75" y="117" width="86" height="28" as="geometry" />
        </mxCell>
        <mxCell id="BF2ht0ZoKoiUmP0f6C4_-34" style="edgeStyle=orthogonalEdgeStyle;rounded=0;orthogonalLoop=1;jettySize=auto;html=1;exitX=0.5;exitY=1;exitDx=0;exitDy=0;entryX=0.5;entryY=0;entryDx=0;entryDy=0;" edge="1" parent="1" source="BF2ht0ZoKoiUmP0f6C4_-25" target="BF2ht0ZoKoiUmP0f6C4_-28">
          <mxGeometry relative="1" as="geometry" />
        </mxCell>
        <mxCell id="BF2ht0ZoKoiUmP0f6C4_-35" value="is_a(one-to-one)" style="edgeLabel;html=1;align=center;verticalAlign=middle;resizable=0;points=[];" vertex="1" connectable="0" parent="BF2ht0ZoKoiUmP0f6C4_-34">
          <mxGeometry x="0.0145" y="-1" relative="1" as="geometry">
            <mxPoint as="offset" />
          </mxGeometry>
        </mxCell>
        <mxCell id="BF2ht0ZoKoiUmP0f6C4_-41" style="edgeStyle=orthogonalEdgeStyle;rounded=0;orthogonalLoop=1;jettySize=auto;html=1;entryX=0.5;entryY=0;entryDx=0;entryDy=0;" edge="1" parent="1" source="BF2ht0ZoKoiUmP0f6C4_-25" target="BF2ht0ZoKoiUmP0f6C4_-36">
          <mxGeometry relative="1" as="geometry" />
        </mxCell>
        <mxCell id="BF2ht0ZoKoiUmP0f6C4_-43" value="donates_to(one-to-many)" style="edgeLabel;html=1;align=center;verticalAlign=middle;resizable=0;points=[];" vertex="1" connectable="0" parent="BF2ht0ZoKoiUmP0f6C4_-41">
          <mxGeometry x="0.4416" y="2" relative="1" as="geometry">
            <mxPoint as="offset" />
          </mxGeometry>
        </mxCell>
        <mxCell id="BF2ht0ZoKoiUmP0f6C4_-25" value="Identity(Donor,cat)" style="rounded=0;whiteSpace=wrap;html=1;" vertex="1" parent="1">
          <mxGeometry x="75" y="145" width="112" height="28" as="geometry" />
        </mxCell>
        <mxCell id="BF2ht0ZoKoiUmP0f6C4_-28" value="Donor" style="rounded=0;whiteSpace=wrap;html=1;" vertex="1" parent="1">
          <mxGeometry x="75" y="229" width="86" height="28" as="geometry" />
        </mxCell>
        <mxCell id="BF2ht0ZoKoiUmP0f6C4_-29" value="DonorID(PK)" style="rounded=0;whiteSpace=wrap;html=1;" vertex="1" parent="1">
          <mxGeometry x="75" y="257" width="86" height="28" as="geometry" />
        </mxCell>
        <mxCell id="BF2ht0ZoKoiUmP0f6C4_-31" value="Name" style="rounded=0;whiteSpace=wrap;html=1;" vertex="1" parent="1">
          <mxGeometry x="75" y="285" width="86" height="28" as="geometry" />
        </mxCell>
        <mxCell id="BF2ht0ZoKoiUmP0f6C4_-32" value="Email" style="rounded=0;whiteSpace=wrap;html=1;" vertex="1" parent="1">
          <mxGeometry x="75" y="313" width="86" height="28" as="geometry" />
        </mxCell>
        <mxCell id="BF2ht0ZoKoiUmP0f6C4_-33" value="Phone" style="rounded=0;whiteSpace=wrap;html=1;" vertex="1" parent="1">
          <mxGeometry x="75" y="341" width="86" height="28" as="geometry" />
        </mxCell>
        <mxCell id="BF2ht0ZoKoiUmP0f6C4_-36" value="Cat" style="rounded=0;whiteSpace=wrap;html=1;" vertex="1" parent="1">
          <mxGeometry x="228" y="229" width="86" height="28" as="geometry" />
        </mxCell>
        <mxCell id="BF2ht0ZoKoiUmP0f6C4_-37" value="CatID(PK)" style="rounded=0;whiteSpace=wrap;html=1;" vertex="1" parent="1">
          <mxGeometry x="228" y="257" width="86" height="28" as="geometry" />
        </mxCell>
        <mxCell id="BF2ht0ZoKoiUmP0f6C4_-38" value="Name" style="rounded=0;whiteSpace=wrap;html=1;" vertex="1" parent="1">
          <mxGeometry x="228" y="285" width="86" height="28" as="geometry" />
        </mxCell>
        <mxCell id="BF2ht0ZoKoiUmP0f6C4_-39" value="Age" style="rounded=0;whiteSpace=wrap;html=1;" vertex="1" parent="1">
          <mxGeometry x="228" y="313" width="86" height="28" as="geometry" />
        </mxCell>
        <mxCell id="BF2ht0ZoKoiUmP0f6C4_-40" value="HealthStatus" style="rounded=0;whiteSpace=wrap;html=1;" vertex="1" parent="1">
          <mxGeometry x="228" y="341" width="86" height="28" as="geometry" />
        </mxCell>
        <mxCell id="BF2ht0ZoKoiUmP0f6C4_-42" value="Descript" style="rounded=0;whiteSpace=wrap;html=1;" vertex="1" parent="1">
          <mxGeometry x="228" y="369" width="86" height="28" as="geometry" />
        </mxCell>
        <mxCell id="BF2ht0ZoKoiUmP0f6C4_-44" value="AwardActivity" style="rounded=0;whiteSpace=wrap;html=1;" vertex="1" parent="1">
          <mxGeometry x="393" y="229" width="86" height="28" as="geometry" />
        </mxCell>
        <mxCell id="BF2ht0ZoKoiUmP0f6C4_-45" value="AwAcID(PK)" style="rounded=0;whiteSpace=wrap;html=1;" vertex="1" parent="1">
          <mxGeometry x="393" y="257" width="86" height="28" as="geometry" />
        </mxCell>
        <mxCell id="BF2ht0ZoKoiUmP0f6C4_-46" value="Name" style="rounded=0;whiteSpace=wrap;html=1;" vertex="1" parent="1">
          <mxGeometry x="393" y="285" width="86" height="28" as="geometry" />
        </mxCell>
        <mxCell id="BF2ht0ZoKoiUmP0f6C4_-47" value="Description" style="rounded=0;whiteSpace=wrap;html=1;" vertex="1" parent="1">
          <mxGeometry x="393" y="313" width="86" height="28" as="geometry" />
        </mxCell>
        <mxCell id="BF2ht0ZoKoiUmP0f6C4_-48" value="Date" style="rounded=0;whiteSpace=wrap;html=1;" vertex="1" parent="1">
          <mxGeometry x="393" y="341" width="86" height="28" as="geometry" />
        </mxCell>
        <mxCell id="BF2ht0ZoKoiUmP0f6C4_-51" value="System" style="rounded=0;whiteSpace=wrap;html=1;" vertex="1" parent="1">
          <mxGeometry x="-464" y="201" width="86" height="28" as="geometry" />
        </mxCell>
        <mxCell id="BF2ht0ZoKoiUmP0f6C4_-52" value="SystemID(PK)" style="rounded=0;whiteSpace=wrap;html=1;" vertex="1" parent="1">
          <mxGeometry x="-464" y="229" width="86" height="28" as="geometry" />
        </mxCell>
        <mxCell id="BF2ht0ZoKoiUmP0f6C4_-53" value="Notification" style="rounded=0;whiteSpace=wrap;html=1;" vertex="1" parent="1">
          <mxGeometry x="-464" y="257" width="86" height="28" as="geometry" />
        </mxCell>
        <mxCell id="BF2ht0ZoKoiUmP0f6C4_-54" value="" style="shape=image;html=1;verticalLabelPosition=bottom;verticalAlign=top;imageAspect=1;aspect=fixed;image=img/clipart/Gear_128x128.png" vertex="1" parent="1">
          <mxGeometry x="-281" y="-63" width="52" height="61" as="geometry" />
        </mxCell>
        <mxCell id="BF2ht0ZoKoiUmP0f6C4_-55" value="" style="shape=image;html=1;verticalLabelPosition=bottom;verticalAlign=top;imageAspect=1;aspect=fixed;image=img/clipart/Gear_128x128.png" vertex="1" parent="1">
          <mxGeometry x="75" y="-63" width="52" height="61" as="geometry" />
        </mxCell>
        <mxCell id="BF2ht0ZoKoiUmP0f6C4_-57" value="OH MY KITTEN in CITYU(OMKC)" style="rounded=1;whiteSpace=wrap;html=1;strokeWidth=2;fillWeight=4;hachureGap=8;hachureAngle=45;fillColor=#1ba1e2;sketch=1;" vertex="1" parent="1">
          <mxGeometry x="-203" y="-63" width="258" height="60" as="geometry" />
        </mxCell>
      </root>
    </mxGraphModel>
  </diagram>
</mxfile>
